<mxfile host="Electron" agent="Mozilla/5.0 (Windows NT 10.0; Win64; x64) AppleWebKit/537.36 (KHTML, like Gecko) draw.io/25.0.2 Chrome/128.0.6613.186 Electron/32.2.5 Safari/537.36" compressed="false" version="25.0.2">
  <diagram id="1IEk_Nb3fTFsxIXIZDjR" name="Page-1">
    <mxGraphModel dx="2528" dy="1397" grid="1" gridSize="10" guides="1" tooltips="1" connect="1" arrows="1" fold="1" page="0" pageScale="1" pageWidth="850" pageHeight="1100" math="1" shadow="0">
      <root>
        <mxCell id="0" />
        <mxCell id="1" parent="0" />
        <mxCell id="v4MbWclvh_0Z0_SbZdEy-33" value="PhysicalTwin" style="shape=folder;fontStyle=1;spacingTop=10;tabWidth=40;tabHeight=14;tabPosition=left;html=1;verticalAlign=top;fillColor=none;strokeColor=default;strokeWidth=1;align=left;dashed=1;" parent="1" vertex="1">
          <mxGeometry x="-760" y="-380" width="430" height="230" as="geometry" />
        </mxCell>
        <mxCell id="EjS5dnvfsfONbI1b5QUk-45" value="Digital Twin" style="shape=folder;fontStyle=1;spacingTop=10;tabWidth=40;tabHeight=14;tabPosition=left;html=1;verticalAlign=top;fillColor=none;align=left;strokeWidth=1;dashed=1;" parent="1" vertex="1">
          <mxGeometry x="-320" y="-380" width="680" height="480" as="geometry" />
        </mxCell>
        <mxCell id="v4MbWclvh_0Z0_SbZdEy-42" value="&lt;font&gt;&lt;span&gt;heater [MQ]&lt;/span&gt;&lt;/font&gt;" style="edgeStyle=orthogonalEdgeStyle;rounded=0;orthogonalLoop=1;jettySize=auto;html=1;fontSize=11;exitX=0;exitY=0.5;exitDx=0;exitDy=0;fontStyle=0" parent="1" source="A-o1CAiXA4TubiRStx8g-1" target="v4MbWclvh_0Z0_SbZdEy-40" edge="1">
          <mxGeometry relative="1" as="geometry">
            <mxPoint x="-507.5" y="-230" as="sourcePoint" />
          </mxGeometry>
        </mxCell>
        <mxCell id="v4MbWclvh_0Z0_SbZdEy-44" value="&lt;font&gt;&lt;span&gt;T [MQ]&lt;/span&gt;&lt;/font&gt;" style="edgeStyle=orthogonalEdgeStyle;shape=connector;rounded=0;orthogonalLoop=1;jettySize=auto;html=1;exitX=1;exitY=0.75;exitDx=0;exitDy=0;entryX=0;entryY=0.75;entryDx=0;entryDy=0;labelBackgroundColor=default;fontFamily=Helvetica;fontSize=11;fontColor=default;endArrow=classic;strokeColor=default;fontStyle=0" parent="1" source="v4MbWclvh_0Z0_SbZdEy-40" target="A-o1CAiXA4TubiRStx8g-1" edge="1">
          <mxGeometry relative="1" as="geometry">
            <mxPoint x="-507.5" y="-210" as="targetPoint" />
          </mxGeometry>
        </mxCell>
        <mxCell id="v4MbWclvh_0Z0_SbZdEy-40" value="&lt;p style=&quot;margin: 6px 0px 0px; text-align: center;&quot;&gt;&lt;font style=&quot;&quot;&gt;&lt;span style=&quot;font-size: 12px;&quot;&gt;&lt;b&gt;PTEmulator&lt;/b&gt;&lt;/span&gt;&lt;br&gt;&lt;/font&gt;&lt;/p&gt;&lt;hr style=&quot;font-size: 12px&quot;&gt;&lt;p style=&quot;margin: 0px 0px 0px 8px ; font-size: 12px&quot;&gt;Simulates incubator dynamics using the physics model.&lt;/p&gt;" style="align=left;overflow=fill;html=1;dropTarget=0;fontSize=8;whiteSpace=wrap;" parent="1" vertex="1">
          <mxGeometry x="-750" y="-270" width="182.5" height="82.5" as="geometry" />
        </mxCell>
        <mxCell id="v4MbWclvh_0Z0_SbZdEy-41" value="" style="shape=component;jettyWidth=8;jettyHeight=4;fontSize=8;" parent="v4MbWclvh_0Z0_SbZdEy-40" vertex="1">
          <mxGeometry x="1" width="20" height="20" relative="1" as="geometry">
            <mxPoint x="-24" y="4" as="offset" />
          </mxGeometry>
        </mxCell>
        <mxCell id="A-o1CAiXA4TubiRStx8g-13" value="data [API]" style="edgeStyle=orthogonalEdgeStyle;rounded=0;orthogonalLoop=1;jettySize=auto;html=1;" edge="1" parent="1" source="EjS5dnvfsfONbI1b5QUk-1" target="A-o1CAiXA4TubiRStx8g-11">
          <mxGeometry relative="1" as="geometry">
            <mxPoint as="offset" />
          </mxGeometry>
        </mxCell>
        <mxCell id="EjS5dnvfsfONbI1b5QUk-1" value="&lt;p style=&quot;margin: 6px 0px 0px; text-align: center;&quot;&gt;&lt;font style=&quot;&quot;&gt;&lt;b style=&quot;&quot;&gt;&lt;font style=&quot;font-size: 12px;&quot;&gt;InfluxDataRecorder&lt;/font&gt;&lt;br&gt;&lt;/b&gt;&lt;/font&gt;&lt;/p&gt;&lt;hr style=&quot;font-size: 10px&quot;&gt;&lt;p style=&quot;text-align: justify ; margin: 0px 0px 0px 8px ; font-size: 10px&quot;&gt;&lt;font style=&quot;font-size: 10px&quot;&gt;Records&amp;nbsp;&lt;/font&gt;&lt;span style=&quot;background-color: initial;&quot;&gt;all state messages into InfluxDB.&lt;/span&gt;&lt;/p&gt;" style="align=left;overflow=fill;html=1;dropTarget=0;fontSize=8;whiteSpace=wrap;" parent="1" vertex="1">
          <mxGeometry x="-240" y="-330" width="220" height="55" as="geometry" />
        </mxCell>
        <mxCell id="EjS5dnvfsfONbI1b5QUk-2" value="" style="shape=component;jettyWidth=8;jettyHeight=4;fontSize=8;" parent="EjS5dnvfsfONbI1b5QUk-1" vertex="1">
          <mxGeometry x="1" width="20" height="20" relative="1" as="geometry">
            <mxPoint x="-24" y="4" as="offset" />
          </mxGeometry>
        </mxCell>
        <mxCell id="eyBVZ_MkJJh66saB7Oj8-1" value="" style="rounded=1;whiteSpace=wrap;html=1;fontSize=8;fillColor=#f5f5f5;fontColor=#333333;strokeColor=#666666;" parent="1" vertex="1">
          <mxGeometry x="-737.5" y="-120" width="330" height="90" as="geometry" />
        </mxCell>
        <mxCell id="eyBVZ_MkJJh66saB7Oj8-2" value="Legend:" style="text;html=1;strokeColor=none;fillColor=none;align=left;verticalAlign=middle;whiteSpace=wrap;rounded=0;fontStyle=1;spacing=6;" parent="1" vertex="1">
          <mxGeometry x="-737.5" y="-120" width="80" height="30" as="geometry" />
        </mxCell>
        <mxCell id="eyBVZ_MkJJh66saB7Oj8-3" value="&lt;p style=&quot;margin: 6px 0px 0px ; text-align: center&quot;&gt;&lt;font&gt;&lt;b&gt;&lt;font style=&quot;font-size: 10px&quot;&gt;Component&lt;/font&gt;&lt;/b&gt;&lt;br&gt;&lt;/font&gt;&lt;/p&gt;&lt;hr style=&quot;font-size: 9px&quot;&gt;&lt;p style=&quot;margin: 0px 0px 0px 8px ; font-size: 9px&quot;&gt;&lt;font style=&quot;font-size: 9px&quot;&gt;Responsibility.&lt;/font&gt;&lt;/p&gt;" style="align=left;overflow=fill;html=1;dropTarget=0;fontSize=8;" parent="1" vertex="1">
          <mxGeometry x="-715" y="-90" width="147.5" height="50" as="geometry" />
        </mxCell>
        <mxCell id="eyBVZ_MkJJh66saB7Oj8-4" value="" style="shape=component;jettyWidth=8;jettyHeight=4;fontSize=8;" parent="eyBVZ_MkJJh66saB7Oj8-3" vertex="1">
          <mxGeometry x="1" width="20" height="20" relative="1" as="geometry">
            <mxPoint x="-24" y="4" as="offset" />
          </mxGeometry>
        </mxCell>
        <mxCell id="eyBVZ_MkJJh66saB7Oj8-10" value="" style="edgeStyle=orthogonalEdgeStyle;shape=connector;rounded=0;orthogonalLoop=1;jettySize=auto;html=1;labelBackgroundColor=default;fontFamily=Helvetica;fontSize=8;fontColor=default;endArrow=classic;strokeColor=default;exitX=1;exitY=0.5;exitDx=0;exitDy=0;entryX=0;entryY=0.5;entryDx=0;entryDy=0;" parent="1" source="eyBVZ_MkJJh66saB7Oj8-11" target="eyBVZ_MkJJh66saB7Oj8-13" edge="1">
          <mxGeometry relative="1" as="geometry">
            <mxPoint x="-527.5" y="-70" as="sourcePoint" />
            <mxPoint x="-417.5" y="-100" as="targetPoint" />
          </mxGeometry>
        </mxCell>
        <mxCell id="eyBVZ_MkJJh66saB7Oj8-11" value="&lt;p style=&quot;margin: 6px 0px 0px&quot;&gt;&lt;b&gt;&amp;nbsp; A&lt;/b&gt;&lt;/p&gt;" style="align=left;overflow=fill;html=1;dropTarget=0;fontSize=8;spacing=3;" parent="1" vertex="1">
          <mxGeometry x="-537.5" y="-110" width="40" height="24" as="geometry" />
        </mxCell>
        <mxCell id="eyBVZ_MkJJh66saB7Oj8-12" value="" style="shape=component;jettyWidth=8;jettyHeight=4;fontSize=8;" parent="eyBVZ_MkJJh66saB7Oj8-11" vertex="1">
          <mxGeometry x="1" width="19" height="15" relative="1" as="geometry">
            <mxPoint x="-24" y="4" as="offset" />
          </mxGeometry>
        </mxCell>
        <mxCell id="eyBVZ_MkJJh66saB7Oj8-13" value="&lt;p style=&quot;margin: 6px 0px 0px&quot;&gt;&lt;b&gt;&amp;nbsp; B&lt;/b&gt;&lt;/p&gt;" style="align=left;overflow=fill;html=1;dropTarget=0;fontSize=8;spacing=3;" parent="1" vertex="1">
          <mxGeometry x="-477.5" y="-110" width="40" height="24" as="geometry" />
        </mxCell>
        <mxCell id="eyBVZ_MkJJh66saB7Oj8-14" value="" style="shape=component;jettyWidth=8;jettyHeight=4;fontSize=8;" parent="eyBVZ_MkJJh66saB7Oj8-13" vertex="1">
          <mxGeometry x="1" width="19" height="15" relative="1" as="geometry">
            <mxPoint x="-24" y="4" as="offset" />
          </mxGeometry>
        </mxCell>
        <mxCell id="eyBVZ_MkJJh66saB7Oj8-15" value="&lt;font style=&quot;font-size: 10px&quot;&gt;&lt;b&gt;A sends data to B, or A requests something from B &lt;br&gt;[comm. technology]&lt;/b&gt;&lt;/font&gt;" style="text;html=1;strokeColor=none;fillColor=none;align=left;verticalAlign=middle;whiteSpace=wrap;rounded=0;fontStyle=0;fontSize=8;" parent="1" vertex="1">
          <mxGeometry x="-557.5" y="-86" width="140" height="40" as="geometry" />
        </mxCell>
        <mxCell id="A-o1CAiXA4TubiRStx8g-1" value="&lt;p style=&quot;margin: 6px 0px 0px; text-align: center;&quot;&gt;&lt;font style=&quot;&quot;&gt;&lt;span style=&quot;font-size: 12px;&quot;&gt;&lt;b&gt;Controller&lt;/b&gt;&lt;/span&gt;&lt;br&gt;&lt;/font&gt;&lt;/p&gt;&lt;hr style=&quot;font-size: 12px&quot;&gt;&lt;p style=&quot;margin: 0px 0px 0px 8px ; font-size: 12px&quot;&gt;Maintains correct temperature.&lt;/p&gt;" style="align=left;overflow=fill;html=1;dropTarget=0;fontSize=8;whiteSpace=wrap;" vertex="1" parent="1">
          <mxGeometry x="-497.5" y="-270" width="140" height="82.5" as="geometry" />
        </mxCell>
        <mxCell id="A-o1CAiXA4TubiRStx8g-2" value="" style="shape=component;jettyWidth=8;jettyHeight=4;fontSize=8;" vertex="1" parent="A-o1CAiXA4TubiRStx8g-1">
          <mxGeometry x="1" width="20" height="20" relative="1" as="geometry">
            <mxPoint x="-24" y="4" as="offset" />
          </mxGeometry>
        </mxCell>
        <mxCell id="A-o1CAiXA4TubiRStx8g-6" value="&lt;p style=&quot;margin: 6px 0px 0px; text-align: center;&quot;&gt;&lt;font style=&quot;&quot;&gt;&lt;span style=&quot;font-size: 12px;&quot;&gt;&lt;b&gt;AverageService&lt;/b&gt;&lt;/span&gt;&lt;br&gt;&lt;/font&gt;&lt;/p&gt;&lt;hr style=&quot;font-size: 12px&quot;&gt;&lt;p style=&quot;margin: 0px 0px 0px 8px ; font-size: 12px&quot;&gt;RPC server that computes averages.&lt;/p&gt;" style="align=left;overflow=fill;html=1;dropTarget=0;fontSize=8;whiteSpace=wrap;" vertex="1" parent="1">
          <mxGeometry x="180" y="-139.5" width="160" height="82.5" as="geometry" />
        </mxCell>
        <mxCell id="A-o1CAiXA4TubiRStx8g-7" value="" style="shape=component;jettyWidth=8;jettyHeight=4;fontSize=8;" vertex="1" parent="A-o1CAiXA4TubiRStx8g-6">
          <mxGeometry x="1" width="20" height="20" relative="1" as="geometry">
            <mxPoint x="-24" y="4" as="offset" />
          </mxGeometry>
        </mxCell>
        <mxCell id="A-o1CAiXA4TubiRStx8g-14" value="Requests to compute an avg. [MQ]" style="edgeStyle=orthogonalEdgeStyle;rounded=0;orthogonalLoop=1;jettySize=auto;html=1;" edge="1" parent="1" source="A-o1CAiXA4TubiRStx8g-8" target="A-o1CAiXA4TubiRStx8g-6">
          <mxGeometry relative="1" as="geometry" />
        </mxCell>
        <mxCell id="A-o1CAiXA4TubiRStx8g-19" value="avgT [MQ]" style="edgeStyle=orthogonalEdgeStyle;rounded=0;orthogonalLoop=1;jettySize=auto;html=1;fontSize=11;" edge="1" parent="1" source="A-o1CAiXA4TubiRStx8g-8" target="A-o1CAiXA4TubiRStx8g-15">
          <mxGeometry relative="1" as="geometry" />
        </mxCell>
        <mxCell id="A-o1CAiXA4TubiRStx8g-8" value="&lt;p style=&quot;margin: 6px 0px 0px; text-align: center;&quot;&gt;&lt;font style=&quot;&quot;&gt;&lt;span style=&quot;font-size: 12px;&quot;&gt;&lt;b&gt;MovingAverageTemperature&lt;/b&gt;&lt;/span&gt;&lt;br&gt;&lt;/font&gt;&lt;/p&gt;&lt;hr style=&quot;font-size: 12px&quot;&gt;&lt;p style=&quot;margin: 0px 0px 0px 8px ; font-size: 12px&quot;&gt;Computes moving average of temperature. Used for detecting anomalies.&lt;/p&gt;" style="align=left;overflow=fill;html=1;dropTarget=0;fontSize=8;whiteSpace=wrap;" vertex="1" parent="1">
          <mxGeometry x="-240" y="-140" width="220" height="83" as="geometry" />
        </mxCell>
        <mxCell id="A-o1CAiXA4TubiRStx8g-9" value="" style="shape=component;jettyWidth=8;jettyHeight=4;fontSize=8;" vertex="1" parent="A-o1CAiXA4TubiRStx8g-8">
          <mxGeometry x="1" width="20" height="20" relative="1" as="geometry">
            <mxPoint x="-24" y="4" as="offset" />
          </mxGeometry>
        </mxCell>
        <mxCell id="A-o1CAiXA4TubiRStx8g-10" value="" style="edgeStyle=orthogonalEdgeStyle;shape=connector;rounded=0;orthogonalLoop=1;jettySize=auto;html=1;labelBackgroundColor=default;fontFamily=Helvetica;fontSize=8;fontColor=default;endArrow=classic;strokeColor=default;" edge="1" parent="1" source="A-o1CAiXA4TubiRStx8g-1" target="A-o1CAiXA4TubiRStx8g-8">
          <mxGeometry x="-0.1383" y="3" relative="1" as="geometry">
            <mxPoint x="-350" y="-220" as="sourcePoint" />
            <mxPoint x="-190" y="-132.5" as="targetPoint" />
            <mxPoint y="1" as="offset" />
            <Array as="points">
              <mxPoint x="-280" y="-219" />
              <mxPoint x="-280" y="-98" />
            </Array>
          </mxGeometry>
        </mxCell>
        <mxCell id="A-o1CAiXA4TubiRStx8g-11" value="&lt;p style=&quot;margin: 6px 0px 0px ; text-align: center ; font-size: 10px&quot;&gt;&lt;font style=&quot;font-size: 10px&quot;&gt;&lt;b&gt;InfluxDBServer&lt;br&gt;&lt;/b&gt;&lt;/font&gt;&lt;/p&gt;&lt;hr style=&quot;font-size: 10px&quot;&gt;&lt;p style=&quot;text-align: justify ; margin: 0px 0px 0px 8px ; font-size: 10px&quot;&gt;Time series database.&lt;/p&gt;" style="align=left;overflow=fill;html=1;dropTarget=0;fontSize=8;whiteSpace=wrap;" vertex="1" parent="1">
          <mxGeometry x="180" y="-330" width="160" height="55" as="geometry" />
        </mxCell>
        <mxCell id="A-o1CAiXA4TubiRStx8g-12" value="" style="shape=component;jettyWidth=8;jettyHeight=4;fontSize=8;" vertex="1" parent="A-o1CAiXA4TubiRStx8g-11">
          <mxGeometry x="1" width="20" height="20" relative="1" as="geometry">
            <mxPoint x="-24" y="4" as="offset" />
          </mxGeometry>
        </mxCell>
        <mxCell id="A-o1CAiXA4TubiRStx8g-15" value="&lt;p style=&quot;margin: 6px 0px 0px; text-align: center;&quot;&gt;&lt;font style=&quot;&quot;&gt;&lt;span style=&quot;font-size: 12px;&quot;&gt;&lt;b&gt;PTReconfiguration&lt;/b&gt;&lt;/span&gt;&lt;br&gt;&lt;/font&gt;&lt;/p&gt;&lt;hr style=&quot;font-size: 12px&quot;&gt;&lt;p style=&quot;margin: 0px 0px 0px 8px ; font-size: 12px&quot;&gt;Compares moving avg with T to detect anomalies such as lid opening. Then reconfigures the controller.&lt;/p&gt;" style="align=left;overflow=fill;html=1;dropTarget=0;fontSize=8;whiteSpace=wrap;" vertex="1" parent="1">
          <mxGeometry x="-240" y="-19" width="220" height="83" as="geometry" />
        </mxCell>
        <mxCell id="A-o1CAiXA4TubiRStx8g-16" value="" style="shape=component;jettyWidth=8;jettyHeight=4;fontSize=8;" vertex="1" parent="A-o1CAiXA4TubiRStx8g-15">
          <mxGeometry x="1" width="20" height="20" relative="1" as="geometry">
            <mxPoint x="-24" y="4" as="offset" />
          </mxGeometry>
        </mxCell>
        <mxCell id="A-o1CAiXA4TubiRStx8g-18" value="" style="edgeStyle=orthogonalEdgeStyle;shape=connector;rounded=0;orthogonalLoop=1;jettySize=auto;html=1;labelBackgroundColor=default;fontFamily=Helvetica;fontSize=8;fontColor=default;endArrow=classic;strokeColor=default;entryX=0;entryY=0.5;entryDx=0;entryDy=0;" edge="1" parent="1" source="A-o1CAiXA4TubiRStx8g-1" target="A-o1CAiXA4TubiRStx8g-15">
          <mxGeometry x="-0.1383" y="3" relative="1" as="geometry">
            <mxPoint x="-350" y="-220" as="sourcePoint" />
            <mxPoint x="-190" y="-132.5" as="targetPoint" />
            <mxPoint y="1" as="offset" />
            <Array as="points">
              <mxPoint x="-280" y="-219" />
              <mxPoint x="-280" y="23" />
            </Array>
          </mxGeometry>
        </mxCell>
        <mxCell id="A-o1CAiXA4TubiRStx8g-20" value="sets new desired T" style="edgeStyle=orthogonalEdgeStyle;shape=connector;rounded=0;orthogonalLoop=1;jettySize=auto;html=1;labelBackgroundColor=default;fontFamily=Helvetica;fontSize=11;fontColor=default;endArrow=classic;strokeColor=default;" edge="1" parent="1" source="A-o1CAiXA4TubiRStx8g-15" target="A-o1CAiXA4TubiRStx8g-1">
          <mxGeometry x="0.3721" y="-20" relative="1" as="geometry">
            <mxPoint x="-340" y="-210" as="sourcePoint" />
            <mxPoint x="-230" y="-88" as="targetPoint" />
            <mxPoint as="offset" />
            <Array as="points">
              <mxPoint x="-130" y="80" />
              <mxPoint x="-380" y="80" />
            </Array>
          </mxGeometry>
        </mxCell>
        <mxCell id="A-o1CAiXA4TubiRStx8g-21" value="&lt;p style=&quot;margin: 6px 0px 0px; text-align: center;&quot;&gt;&lt;font style=&quot;&quot;&gt;&lt;span style=&quot;font-size: 12px;&quot;&gt;&lt;b&gt;NNBasedMonitoringService&lt;/b&gt;&lt;/span&gt;&lt;br&gt;&lt;/font&gt;&lt;/p&gt;&lt;hr style=&quot;font-size: 12px&quot;&gt;&lt;p style=&quot;margin: 0px 0px 0px 8px ; font-size: 12px&quot;&gt;Uses a NN to predict the next temperature.&lt;/p&gt;" style="align=left;overflow=fill;html=1;dropTarget=0;fontSize=8;whiteSpace=wrap;" vertex="1" parent="1">
          <mxGeometry x="-240" y="-240" width="220" height="82.5" as="geometry" />
        </mxCell>
        <mxCell id="A-o1CAiXA4TubiRStx8g-22" value="" style="shape=component;jettyWidth=8;jettyHeight=4;fontSize=8;" vertex="1" parent="A-o1CAiXA4TubiRStx8g-21">
          <mxGeometry x="1" width="20" height="20" relative="1" as="geometry">
            <mxPoint x="-24" y="4" as="offset" />
          </mxGeometry>
        </mxCell>
        <mxCell id="A-o1CAiXA4TubiRStx8g-23" value="" style="edgeStyle=orthogonalEdgeStyle;shape=connector;rounded=0;orthogonalLoop=1;jettySize=auto;html=1;labelBackgroundColor=default;fontFamily=Helvetica;fontSize=8;fontColor=default;endArrow=classic;strokeColor=default;" edge="1" parent="1" source="A-o1CAiXA4TubiRStx8g-1" target="A-o1CAiXA4TubiRStx8g-21">
          <mxGeometry x="-0.1383" y="3" relative="1" as="geometry">
            <mxPoint x="-350" y="-220" as="sourcePoint" />
            <mxPoint x="-190" y="-132.5" as="targetPoint" />
            <mxPoint y="1" as="offset" />
            <Array as="points">
              <mxPoint x="-290" y="-219" />
              <mxPoint x="-290" y="-219" />
            </Array>
          </mxGeometry>
        </mxCell>
        <mxCell id="EjS5dnvfsfONbI1b5QUk-3" value="&lt;font&gt;&lt;span&gt;{time, T}&amp;nbsp; [MQ]&lt;/span&gt;&lt;/font&gt;" style="edgeStyle=orthogonalEdgeStyle;shape=connector;rounded=0;orthogonalLoop=1;jettySize=auto;html=1;entryX=0;entryY=0.5;entryDx=0;entryDy=0;labelBackgroundColor=default;fontFamily=Helvetica;fontSize=11;fontColor=default;endArrow=classic;strokeColor=default;fontStyle=0" parent="1" source="A-o1CAiXA4TubiRStx8g-1" target="EjS5dnvfsfONbI1b5QUk-1" edge="1">
          <mxGeometry x="-0.485" relative="1" as="geometry">
            <mxPoint x="-350" y="-220" as="sourcePoint" />
            <mxPoint x="-190" y="-132.5" as="targetPoint" />
            <mxPoint as="offset" />
            <Array as="points">
              <mxPoint x="-280" y="-219" />
              <mxPoint x="-280" y="-302" />
            </Array>
          </mxGeometry>
        </mxCell>
        <mxCell id="A-o1CAiXA4TubiRStx8g-24" value="{T, error} [MQ]" style="edgeStyle=orthogonalEdgeStyle;rounded=0;orthogonalLoop=1;jettySize=auto;html=1;fontSize=11;" edge="1" parent="1" source="A-o1CAiXA4TubiRStx8g-21" target="EjS5dnvfsfONbI1b5QUk-1">
          <mxGeometry relative="1" as="geometry">
            <mxPoint x="-120" y="-47" as="sourcePoint" />
            <mxPoint x="-120" y="-9" as="targetPoint" />
            <Array as="points">
              <mxPoint x="-130" y="-260" />
              <mxPoint x="-130" y="-260" />
            </Array>
          </mxGeometry>
        </mxCell>
      </root>
    </mxGraphModel>
  </diagram>
</mxfile>
